{
  "source": "C:\\Users\\Peter\\Desktop\\stuff\\MIUN\\quantitative_research\\video_compression\\videos\\HEVC_CLASS_B\\BasketballDrive_1920x1080_50.y4m",
  "output": "C:\\Users\\Peter\\Desktop\\stuff\\MIUN\\quantitative_research\\video_compression\\compressed_videos\\HEVC_CLASS_B\\h264\\4\\BasketballDrive_1920x1080_50_h264.mp4",
  "codec": "h264",
  "ok": "Input #0, yuv4mpegpipe, from 'C:\\Users\\Peter\\Desktop\\stuff\\MIUN\\quantitative_research\\video_compression\\videos\\HEVC_CLASS_B\\BasketballDrive_1920x1080_50.y4m':\n  Duration: 00:00:10.00, start: 0.000000, bitrate: 1244162 kb/s\n  Stream #0:0: Video: rawvideo (I420 / 0x30323449), yuv420p(progressive), 1920x1080, 50 fps, 50 tbr, 50 tbn\n[out#0/mp4 @ 0000027f9d729a40] Codec AVOption b:a (set bitrate (in bits/s)) has not been used for any stream. The most likely reason is either wrong type (e.g. a video option with no video streams) or that it is a private option of some decoder which was not actually used for any stream.\nStream mapping:\n  Stream #0:0 -> #0:0 (rawvideo (native) -> h264 (libx264))\nPress [q] to stop, [?] for help\n[libx264 @ 0000027f9d72cac0] using cpu capabilities: MMX2 SSE2Fast SSSE3 SSE4.2 AVX FMA3 BMI2 AVX2\n[libx264 @ 0000027f9d72cac0] profile High, level 5.0, 4:2:0, 8-bit\n[libx264 @ 0000027f9d72cac0] 264 - core 165 r3222 b35605a - H.264/MPEG-4 AVC codec - Copyleft 2003-2025 - http://www.videolan.org/x264.html - options: cabac=1 ref=5 deblock=1:0:0 analyse=0x3:0x113 me=hex subme=8 psy=1 psy_rd=1.00:0.00 mixed_ref=1 me_range=16 chroma_me=1 trellis=2 8x8dct=1 cqm=0 deadzone=21,11 fast_pskip=1 chroma_qp_offset=-2 threads=18 lookahead_threads=3 sliced_threads=0 nr=0 decimate=1 interlaced=0 bluray_compat=0 constrained_intra=0 bframes=3 b_pyramid=2 b_adapt=1 b_bias=0 direct=3 weightb=1 open_gop=0 weightp=2 keyint=250 keyint_min=25 scenecut=40 intra_refresh=0 rc_lookahead=50 rc=cbr mbtree=1 bitrate=4000 ratetol=1.0 qcomp=0.60 qpmin=0 qpmax=69 qpstep=4 vbv_maxrate=4000 vbv_bufsize=4000 nal_hrd=none filler=0 ip_ratio=1.40 aq=1:1.00\nOutput #0, mp4, to 'C:\\Users\\Peter\\Desktop\\stuff\\MIUN\\quantitative_research\\video_compression\\compressed_videos\\HEVC_CLASS_B\\h264\\4\\BasketballDrive_1920x1080_50_h264.mp4':\n  Metadata:\n    encoder         : Lavf62.3.100\n  Stream #0:0: Video: h264 (avc1 / 0x31637661), yuv420p(tv, progressive), 1920x1080, q=2-31, 4000 kb/s, 50 fps, 12800 tbn\n    Metadata:\n      encoder         : Lavc62.11.100 libx264\n    Side data:\n      cpb: bitrate max/min/avg: 4000000/0/4000000 buffer size: 4000000 vbv_delay: N/A\nframe=    0 fps=0.0 q=0.0 size=       0KiB time=N/A bitrate=N/A speed=N/A elapsed=0:00:00.53    \nframe=    0 fps=0.0 q=0.0 size=       0KiB time=N/A bitrate=N/A speed=N/A elapsed=0:00:01.34    \nframe=    0 fps=0.0 q=0.0 size=       0KiB time=N/A bitrate=N/A speed=N/A elapsed=0:00:01.87    \nframe=    9 fps=3.6 q=38.0 size=       0KiB time=00:00:00.12 bitrate=   3.2kbits/s speed=0.0483x elapsed=0:00:02.48    \nframe=   18 fps=5.8 q=37.0 size=       0KiB time=00:00:00.32 bitrate=   1.2kbits/s speed=0.103x elapsed=0:00:03.11    \nframe=   36 fps=9.4 q=37.0 size=     256KiB time=00:00:00.52 bitrate=4033.7kbits/s speed=0.135x elapsed=0:00:03.83    \nframe=   41 fps=8.8 q=37.0 size=     256KiB time=00:00:00.78 bitrate=2689.1kbits/s speed=0.168x elapsed=0:00:04.63    \nframe=   45 fps=8.7 q=37.0 size=     256KiB time=00:00:00.78 bitrate=2689.1kbits/s speed=0.151x elapsed=0:00:05.17    \nframe=   57 fps=9.9 q=37.0 size=     256KiB time=00:00:01.10 bitrate=1906.9kbits/s speed=0.191x elapsed=0:00:05.75    \nframe=   64 fps= 10 q=37.0 size=     512KiB time=00:00:01.24 bitrate=3382.8kbits/s speed=0.193x elapsed=0:00:06.42    \nframe=   76 fps= 11 q=38.0 size=     512KiB time=00:00:01.46 bitrate=2873.1kbits/s speed=0.208x elapsed=0:00:07.01    \nframe=   81 fps= 11 q=38.0 size=     768KiB time=00:00:01.58 bitrate=3982.2kbits/s speed=0.206x elapsed=0:00:07.67    \nframe=   92 fps= 11 q=38.0 size=     768KiB time=00:00:01.80 bitrate=3495.5kbits/s speed=0.217x elapsed=0:00:08.31    \nframe=  101 fps= 11 q=38.0 size=     768KiB time=00:00:01.98 bitrate=3177.7kbits/s speed=0.224x elapsed=0:00:08.85    \nframe=  113 fps= 12 q=38.0 size=    1024KiB time=00:00:02.22 bitrate=3778.8kbits/s speed=0.237x elapsed=0:00:09.38    \nframe=  118 fps= 12 q=38.0 size=    1024KiB time=00:00:02.30 bitrate=3647.4kbits/s speed=0.231x elapsed=0:00:09.96    \nframe=  132 fps= 13 q=38.0 size=    1280KiB time=00:00:02.58 bitrate=4064.4kbits/s speed=0.245x elapsed=0:00:10.53    \nframe=  133 fps= 12 q=38.0 size=    1280KiB time=00:00:02.62 bitrate=4002.3kbits/s speed=0.235x elapsed=0:00:11.17    \nframe=  153 fps= 13 q=38.0 size=    1280KiB time=00:00:02.98 bitrate=3518.8kbits/s speed=0.254x elapsed=0:00:11.72    \nframe=  158 fps= 13 q=38.0 size=    1536KiB time=00:00:03.10 bitrate=4059.1kbits/s speed=0.251x elapsed=0:00:12.33    \nframe=  172 fps= 13 q=38.0 size=    1536KiB time=00:00:03.40 bitrate=3701.0kbits/s speed=0.264x elapsed=0:00:12.88    \nframe=  189 fps= 14 q=38.0 size=    1792KiB time=00:00:03.72 bitrate=3946.4kbits/s speed=0.275x elapsed=0:00:13.51    \nframe=  189 fps= 13 q=38.0 size=    1792KiB time=00:00:03.74 bitrate=3925.3kbits/s speed=0.265x elapsed=0:00:14.11    \nframe=  207 fps= 14 q=37.0 size=    1792KiB time=00:00:04.10 bitrate=3580.6kbits/s speed=0.279x elapsed=0:00:14.67    \nframe=  209 fps= 14 q=37.0 size=    1792KiB time=00:00:04.14 bitrate=3546.0kbits/s speed=0.272x elapsed=0:00:15.23    \nframe=  229 fps= 15 q=37.0 size=    2048KiB time=00:00:04.46 bitrate=3761.8kbits/s speed=0.283x elapsed=0:00:15.78    \nframe=  232 fps= 14 q=37.0 size=    2048KiB time=00:00:04.60 bitrate=3647.3kbits/s speed=0.279x elapsed=0:00:16.47    \nframe=  246 fps= 14 q=37.0 size=    2304KiB time=00:00:04.80 bitrate=3932.2kbits/s speed=0.282x elapsed=0:00:17.02    \nframe=  255 fps= 14 q=36.0 size=    2304KiB time=00:00:05.06 bitrate=3730.2kbits/s speed=0.286x elapsed=0:00:17.66    \nframe=  260 fps= 14 q=36.0 size=    2304KiB time=00:00:05.16 bitrate=3657.9kbits/s speed=0.283x elapsed=0:00:18.21    \nframe=  278 fps= 15 q=37.0 size=    2560KiB time=00:00:05.52 bitrate=3799.3kbits/s speed=0.294x elapsed=0:00:18.77    \nframe=  279 fps= 14 q=37.0 size=    2560KiB time=00:00:05.54 bitrate=3785.5kbits/s speed=0.286x elapsed=0:00:19.36    \nframe=  290 fps= 15 q=37.0 size=    2560KiB time=00:00:05.70 bitrate=3679.3kbits/s speed=0.286x elapsed=0:00:19.92    \nframe=  299 fps= 14 q=37.0 size=    2816KiB time=00:00:05.94 bitrate=3883.7kbits/s speed=0.288x elapsed=0:00:20.63    \nframe=  311 fps= 15 q=37.0 size=    2816KiB time=00:00:06.18 bitrate=3732.9kbits/s speed=0.291x elapsed=0:00:21.25    \nframe=  323 fps= 15 q=36.0 size=    2816KiB time=00:00:06.42 bitrate=3593.3kbits/s speed=0.295x elapsed=0:00:21.76    \nframe=  323 fps= 14 q=36.0 size=    2816KiB time=00:00:06.42 bitrate=3593.3kbits/s speed=0.288x elapsed=0:00:22.28    \nframe=  341 fps= 15 q=36.0 size=    3072KiB time=00:00:06.78 bitrate=3711.8kbits/s speed=0.297x elapsed=0:00:22.80    \nframe=  343 fps= 15 q=36.0 size=    3072KiB time=00:00:06.82 bitrate=3690.1kbits/s speed=0.292x elapsed=0:00:23.31    \nframe=  356 fps= 15 q=36.0 size=    3328KiB time=00:00:07.08 bitrate=3850.8kbits/s speed=0.297x elapsed=0:00:23.83    \nframe=  375 fps= 15 q=37.0 size=    3328KiB time=00:00:07.46 bitrate=3654.6kbits/s speed=0.306x elapsed=0:00:24.35    \nframe=  394 fps= 16 q=36.0 size=    3584KiB time=00:00:07.84 bitrate=3745.0kbits/s speed=0.315x elapsed=0:00:24.85    \nframe=  412 fps= 16 q=37.0 size=    3840KiB time=00:00:08.20 bitrate=3836.3kbits/s speed=0.323x elapsed=0:00:25.38    \nframe=  427 fps= 16 q=37.0 size=    3840KiB time=00:00:08.50 bitrate=3700.9kbits/s speed=0.328x elapsed=0:00:25.89    \nframe=  436 fps= 17 q=37.0 size=    3840KiB time=00:00:08.68 bitrate=3624.2kbits/s speed=0.329x elapsed=0:00:26.41    \nframe=  451 fps= 17 q=37.0 size=    4096KiB time=00:00:08.98 bitrate=3736.6kbits/s speed=0.333x elapsed=0:00:26.92    \nframe=  460 fps= 17 q=37.0 size=    4352KiB time=00:00:09.16 bitrate=3892.1kbits/s speed=0.334x elapsed=0:00:27.44    \nframe=  471 fps= 17 q=37.0 size=    4352KiB time=00:00:09.38 bitrate=3800.8kbits/s speed=0.336x elapsed=0:00:27.95    \nframe=  480 fps= 17 q=35.0 size=    4352KiB time=00:00:09.56 bitrate=3729.3kbits/s speed=0.336x elapsed=0:00:28.47    \nframe=  495 fps= 17 q=-1.0 size=    4608KiB time=00:00:09.86 bitrate=3828.5kbits/s speed=0.34x elapsed=0:00:28.98    \n[mp4 @ 0000027f9d729b40] Starting second pass: moving the moov atom to the beginning of the file\n[out#0/mp4 @ 0000027f9d729a40] video:4751KiB audio:0KiB subtitle:0KiB other streams:0KiB global headers:0KiB muxing overhead: 0.142225%\nframe=  500 fps= 17 q=-1.0 Lsize=    4758KiB time=00:00:09.96 bitrate=3913.0kbits/s speed=0.343x elapsed=0:00:29.04    \n[libx264 @ 0000027f9d72cac0] frame I:2     Avg QP:32.46  size: 46546\n[libx264 @ 0000027f9d72cac0] frame P:126   Avg QP:35.04  size: 19199\n[libx264 @ 0000027f9d72cac0] frame B:372   Avg QP:38.49  size:  6322\n[libx264 @ 0000027f9d72cac0] consecutive B-frames:  0.8%  0.0%  0.0% 99.2%\n[libx264 @ 0000027f9d72cac0] mb I  I16..4: 37.8% 51.7% 10.5%\n[libx264 @ 0000027f9d72cac0] mb P  I16..4:  3.4%  6.8%  0.8%  P16..4: 35.2%  4.6%  3.0%  0.0%  0.0%    skip:46.2%\n[libx264 @ 0000027f9d72cac0] mb B  I16..4:  0.1%  0.4%  0.0%  B16..8: 46.0%  2.2%  0.3%  direct: 0.7%  skip:50.3%  L0:41.1% L1:57.3% BI: 1.6%\n[libx264 @ 0000027f9d72cac0] 8x8 transform intra:62.4% inter:85.2%\n[libx264 @ 0000027f9d72cac0] direct mvs  spatial:97.3% temporal:2.7%\n[libx264 @ 0000027f9d72cac0] coded y,uvDC,uvAC intra: 42.1% 49.2% 20.7% inter: 4.3% 5.2% 0.3%\n[libx264 @ 0000027f9d72cac0] i16 v,h,dc,p: 32% 29%  3% 37%\n[libx264 @ 0000027f9d72cac0] i8 v,h,dc,ddl,ddr,vr,hd,vl,hu: 10%  6%  4% 11% 18% 16% 15% 12% 10%\n[libx264 @ 0000027f9d72cac0] i4 v,h,dc,ddl,ddr,vr,hd,vl,hu: 12% 12%  5%  9% 17% 15% 12%  9% 10%\n[libx264 @ 0000027f9d72cac0] i8c dc,h,v,p: 37% 24% 20% 18%\n[libx264 @ 0000027f9d72cac0] Weighted P-Frames: Y:0.0% UV:0.0%\n[libx264 @ 0000027f9d72cac0] ref P L0: 54.6% 18.9% 15.9%  5.2%  5.4%\n[libx264 @ 0000027f9d72cac0] ref B L0: 91.1%  6.6%  1.8%  0.6%\n[libx264 @ 0000027f9d72cac0] ref B L1: 97.4%  2.6%\n[libx264 @ 0000027f9d72cac0] kb/s:3891.24\n",
  "seconds": 29.902978897094727,
  "probe_out": {}
}